<svg xmlns:xlink="http://www.w3.org/1999/xlink" xmlns="http://www.w3.org/2000/svg" width="93" height="93" viewBox="0 0 93 93" fill="none">
<circle cx="46.2171" cy="46.2171" r="28.4058" transform="rotate(18.8357 46.2171 46.2171)" fill="#43C6BC"/>
<path fill-rule="evenodd" clip-rule="evenodd" d="M57.63 37.2625C58.3906 37.717 59.0858 38.2781 59.6631 38.9519C63.2477 43.057 61.9335 48.8969 58.0444 52.3636C55.9819 54.0904 53.5511 55.3385 50.9533 55.9928C47.2787 56.8559 43.5288 57.3305 39.7493 57.4111L39.3391 57.413L39.1417 57.0317C37.4055 53.6712 36.0326 50.1353 35.0375 46.4652C34.394 43.8739 34.3333 41.1532 34.865 38.5117C36.0528 33.4307 40.5733 29.5069 45.9501 30.7227C46.3717 30.8111 46.7826 30.9421 47.1723 31.1112L47.3169 31.1976C47.6852 31.3506 48.0351 31.5287 48.3726 31.7303L48.5052 31.8096C49.2509 32.2863 49.907 32.8583 50.4746 33.5263L50.5457 33.5688C50.5802 33.6205 50.6013 33.6674 50.6117 33.7047C50.8269 33.9495 51.0212 34.1965 51.1831 34.4731L51.5187 34.9518C51.5941 35.077 51.6644 35.2414 51.7252 35.3835C51.7637 35.4735 51.7984 35.5546 51.8281 35.6111C51.8408 35.6344 51.8538 35.6581 51.8669 35.6819C51.9342 35.804 52.0044 35.9312 52.0535 36.055C54.0043 35.8319 55.9617 36.2492 57.63 37.2625ZM55.6502 47.8573C56.1523 48.1394 56.8112 47.9949 57.1506 47.5091L57.2363 47.3656C58.2817 45.6985 58.1724 43.5573 56.9692 42.0367C56.5766 41.5714 55.8749 41.5137 55.3916 41.9119C54.9203 42.3173 54.8541 43.0302 55.2531 43.5124C55.8528 44.2634 55.9154 45.333 55.4119 46.1756L55.3896 46.2129C55.2017 46.4753 55.1257 46.7914 55.172 47.0971C55.2183 47.4029 55.4001 47.6735 55.6502 47.8573Z" fill="#4A46FF"/>
</svg>