<svg xmlns:xlink="http://www.w3.org/1999/xlink" xmlns="http://www.w3.org/2000/svg" class="icon icon-l-restaurant sz-20" width="32"  height="32" ><defs><symbol id="icon-l-restaurant" viewBox="0 0 32 32">
    <path d="M29.293 24v1.333c0 2.2 0 4-4 4h-18.667c-4 0-4-1.8-4-4v-1.333c0-0.733 0.6-1.333 1.333-1.333h24c0.733 0 1.333 0.6 1.333 1.333z"></path>
    <path d="M19.213 6.906c0.067-0.267 0.107-0.52 0.12-0.8 0.040-1.547-0.907-2.907-2.4-3.307-2.24-0.613-4.267 1.067-4.267 3.2 0 0.32 0.040 0.613 0.12 0.907-4.813 1.027-8.427 5.307-8.427 10.427v2c0 0.733 0.6 1.333 1.333 1.333h20.6c0.733 0 1.333-0.6 1.333-1.333v-2c0-5.12-3.6-9.387-8.413-10.427zM20 15.666h-8c-0.547 0-1-0.453-1-1s0.453-1 1-1h8c0.547 0 1 0.453 1 1s-0.453 1-1 1z"></path>
    </symbol></defs><use xlink:href="#icon-l-restaurant" stroke="#43C6BC" fill="#43C6BC" stroke-width="0px"></use></svg>