<svg width="654" height="532" viewBox="0 0 654 532" fill="none" xmlns="http://www.w3.org/2000/svg">
<rect x="55" width="532" height="532" rx="20" fill="#4A46FF"/>
<rect x="0.958496" y="97.8491" width="377.897" height="423.206" rx="16.499" transform="rotate(-13.1309 0.958496 97.8491)" fill="#D7D6FF"/>
<rect x="82.3544" y="202.82" width="266.734" height="266.734" rx="10.9993" transform="rotate(-13.1309 82.3544 202.82)" fill="white"/>
<path d="M127.383 220.759C124.264 221.487 121.561 223.424 119.87 226.144C118.179 228.864 117.638 232.144 118.366 235.263L129.339 282.306L188.142 268.588L174.425 209.785L127.383 220.759ZM170.012 257.317L140.611 264.176L133.752 234.774L163.154 227.915L170.012 257.317Z" fill="#050920"/>
<path d="M160.889 417.553C161.617 420.672 163.553 423.374 166.273 425.065C168.993 426.756 172.274 427.297 175.393 426.57L222.435 415.596L208.718 356.793L149.915 370.51L160.889 417.553ZM168.045 381.782L197.447 374.923L204.305 404.324L174.904 411.183L168.045 381.782Z" fill="#050920"/>
<path d="M310.64 395.02L357.682 384.046C360.801 383.319 363.503 381.382 365.194 378.662C366.885 375.942 367.427 372.661 366.699 369.542L355.725 322.5L296.922 336.217L310.64 395.02ZM315.052 347.489L344.454 340.63L351.313 370.032L321.911 376.89L315.052 347.489Z" fill="#050920"/>
<path d="M309.672 178.236L262.629 189.21L276.347 248.013L335.149 234.295L324.176 187.253C323.448 184.134 321.511 181.432 318.791 179.741C316.071 178.05 312.791 177.508 309.672 178.236V178.236ZM317.019 223.024L287.618 229.883L280.759 200.481L310.161 193.623L317.019 223.024Z" fill="#050920"/>
<path d="M243.516 240.171L240.086 225.47L210.685 232.329L217.544 261.73L232.244 258.301L228.815 243.6L243.516 240.171Z" fill="#050920"/>
<path d="M188.142 268.589L202.843 265.16L206.272 279.86L191.572 283.29L188.142 268.589Z" fill="#050920"/>
<path d="M206.272 279.86L235.674 273.001L239.103 287.702L209.702 294.561L206.272 279.86Z" fill="#050920"/>
<path d="M236.657 210.769L240.086 225.47L254.787 222.041L247.929 192.639L189.126 206.357L195.984 235.758L210.685 232.329L207.256 217.628L236.657 210.769Z" fill="#050920"/>
<path d="M132.769 297.006L147.469 293.577L154.328 322.978L139.627 326.408L132.769 297.006Z" fill="#050920"/>
<path d="M195.001 297.99L198.43 312.69L183.73 316.12L176.871 286.718L162.17 290.148L169.029 319.549L154.328 322.978L157.757 337.679L143.057 341.108L146.486 355.809L175.887 348.95L172.458 334.25L187.159 330.82L190.588 345.521L205.289 342.092L201.86 327.391L216.56 323.962L209.702 294.56L195.001 297.99Z" fill="#050920"/>
<path d="M253.804 284.273L268.504 280.844L271.934 295.545L286.635 292.116L283.205 277.415L297.906 273.986L294.477 259.285L265.075 266.143L258.217 236.742L243.516 240.171L246.945 254.872L232.244 258.301L235.674 273.002L250.374 269.573L253.804 284.273Z" fill="#050920"/>
<path d="M263.108 390.607L233.707 397.466L237.136 412.166L295.939 398.449L292.509 383.748L277.809 387.178L274.379 372.477L259.679 375.906L263.108 390.607Z" fill="#050920"/>
<path d="M275.363 310.246L271.934 295.545L257.233 298.974L253.804 284.274L239.103 287.703L242.532 302.404L227.832 305.833L231.261 320.534L245.962 317.104L249.391 331.805L264.092 328.376L260.663 313.675L275.363 310.246Z" fill="#050920"/>
<path d="M334.166 296.528L348.867 293.098L352.296 307.799L337.596 311.228L334.166 296.528Z" fill="#050920"/>
<path d="M275.363 310.245L319.465 299.957L322.895 314.658L278.793 324.946L275.363 310.245Z" fill="#050920"/>
<path d="M323.878 252.426L309.177 255.855L312.607 270.556L297.906 273.985L301.335 288.686L316.036 285.256L319.465 299.957L334.166 296.528L330.737 281.827L345.437 278.398L342.008 263.697L327.307 267.126L323.878 252.426Z" fill="#050920"/>
<path d="M264.092 328.376L278.792 324.946L289.08 369.049L274.38 372.478L264.092 328.376Z" fill="#050920"/>
<path d="M230.278 382.765L244.978 379.336L241.549 364.635L256.25 361.206L252.82 346.505L238.12 349.934L231.261 320.533L216.56 323.962L230.278 382.765Z" fill="#050920"/>
<path d="M155.941 138.11L149.993 112.616L157.387 110.892L168.294 132.463L168.877 132.327L169.114 108.156L176.507 106.431L182.454 131.925L178.63 132.817L173.329 110.091L172.746 110.227L172.512 134.245L165.883 135.791L155.046 114.356L154.463 114.492L159.765 137.218L155.941 138.11ZM196.232 129.249C194.411 129.674 192.732 129.668 191.197 129.233C189.656 128.773 188.336 127.942 187.236 126.739C186.161 125.531 185.405 123.992 184.969 122.122L184.867 121.685C184.431 119.816 184.427 118.101 184.857 116.542C185.311 114.976 186.115 113.649 187.27 112.561C188.424 111.473 189.887 110.722 191.659 110.308C193.383 109.906 194.979 109.943 196.447 110.42C197.934 110.867 199.2 111.685 200.246 112.875C201.291 114.065 202.027 115.57 202.451 117.391L202.783 118.811L188.98 122.031C189.396 123.598 190.213 124.739 191.429 125.454C192.664 126.138 194.034 126.305 195.54 125.954C196.948 125.626 197.931 125.064 198.487 124.268C199.069 123.467 199.457 122.608 199.653 121.692L203.159 122.564C202.953 123.329 202.623 124.161 202.167 125.061C201.711 125.961 201.009 126.79 200.059 127.55C199.11 128.309 197.834 128.875 196.232 129.249ZM188.345 119.146L198.324 116.818C197.891 115.511 197.147 114.571 196.092 113.998C195.036 113.425 193.804 113.302 192.396 113.631C190.988 113.959 189.925 114.617 189.208 115.603C188.515 116.584 188.228 117.765 188.345 119.146ZM209.15 125.698L204.962 107.743L208.64 106.884L209.269 109.58L209.852 109.444C210.022 108.636 210.47 107.815 211.197 106.979C211.924 106.144 213.149 105.525 214.873 105.123C216.233 104.806 217.505 104.829 218.691 105.193C219.901 105.551 220.94 106.217 221.807 107.192C222.675 108.168 223.287 109.42 223.644 110.95L226.158 121.73L222.407 122.605L219.96 112.116C219.598 110.562 218.943 109.512 217.996 108.965C217.044 108.393 215.888 108.266 214.528 108.583C212.974 108.946 211.843 109.747 211.134 110.988C210.449 112.223 210.333 113.812 210.786 115.754L212.902 124.823L209.15 125.698ZM238.232 119.259C236.873 119.576 235.588 119.556 234.378 119.198C233.168 118.84 232.129 118.174 231.262 117.199C230.394 116.223 229.779 114.959 229.417 113.405L226.902 102.624L230.653 101.749L233.109 112.275C233.471 113.829 234.129 114.891 235.081 115.463C236.028 116.01 237.193 116.122 238.577 115.799C240.107 115.442 241.214 114.647 241.899 113.412C242.602 112.147 242.728 110.543 242.274 108.601L240.159 99.532L243.91 98.6569L248.099 116.612L244.42 117.47L243.792 114.775L243.209 114.911C243.039 115.719 242.593 116.552 241.872 117.412C241.145 118.247 239.932 118.863 238.232 119.259Z" fill="white"/>
<rect x="326.365" y="107.288" width="331.039" height="366.772" rx="16.499" transform="rotate(8.78744 326.365 107.288)" fill="#43C6BC"/>
<rect x="361.995" y="220.795" width="224.761" height="224.761" rx="10.9993" transform="rotate(8.78743 361.995 220.795)" fill="white"/>
<path d="M391.552 248.982C388.885 248.57 386.163 249.234 383.986 250.828C381.808 252.423 380.353 254.817 379.941 257.484L373.723 297.71L424.006 305.483L431.778 255.2L391.552 248.982ZM413.378 290.969L388.237 287.083L392.123 261.941L417.265 265.828L413.378 290.969Z" fill="#050920"/>
<path d="M355.845 413.36C355.433 416.027 356.097 418.749 357.691 420.926C359.286 423.104 361.68 424.559 364.347 424.971L404.573 431.189L412.346 380.907L362.063 373.134L355.845 413.36ZM372.691 387.648L397.832 391.534L393.946 416.676L368.804 412.789L372.691 387.648Z" fill="#050920"/>
<path d="M479.997 442.849L520.223 449.067C522.891 449.479 525.612 448.815 527.79 447.221C529.967 445.626 531.422 443.232 531.835 440.565L538.053 400.339L487.77 392.566L479.997 442.849ZM498.398 407.08L523.539 410.966L519.653 436.108L494.511 432.221L498.398 407.08Z" fill="#050920"/>
<path d="M547.428 273.078L507.202 266.859L499.429 317.142L549.712 324.915L555.93 284.689C556.343 282.022 555.679 279.3 554.084 277.122C552.49 274.945 550.096 273.49 547.428 273.078V273.078ZM539.085 310.401L513.943 306.515L517.83 281.373L542.971 285.26L539.085 310.401Z" fill="#050920"/>
<path d="M476.231 300.685L478.174 288.114L453.033 284.228L449.147 309.369L461.717 311.313L463.66 298.742L476.231 300.685Z" fill="#050920"/>
<path d="M424.006 305.482L436.576 307.425L434.633 319.996L422.062 318.053L424.006 305.482Z" fill="#050920"/>
<path d="M434.633 319.996L459.774 323.882L457.831 336.453L432.69 332.567L434.633 319.996Z" fill="#050920"/>
<path d="M480.118 275.543L478.174 288.114L490.745 290.057L494.631 264.916L444.349 257.143L440.462 282.284L453.033 284.228L454.976 271.657L480.118 275.543Z" fill="#050920"/>
<path d="M371.779 310.28L384.35 312.223L380.464 337.365L367.893 335.421L371.779 310.28Z" fill="#050920"/>
<path d="M420.119 330.624L418.176 343.195L405.605 341.252L409.492 316.11L396.921 314.167L393.034 339.308L380.464 337.365L378.52 349.936L365.95 347.993L364.007 360.563L389.148 364.45L391.091 351.879L403.662 353.822L401.719 366.393L414.289 368.336L416.233 355.765L428.803 357.709L432.69 332.567L420.119 330.624Z" fill="#050920"/>
<path d="M470.402 338.397L482.972 340.34L481.029 352.911L493.6 354.854L495.543 342.283L508.114 344.226L510.057 331.656L484.915 327.769L488.802 302.628L476.231 300.685L474.288 313.255L461.717 311.312L459.774 323.883L472.345 325.826L470.402 338.397Z" fill="#050920"/>
<path d="M444.228 424.449L419.087 420.562L417.144 433.133L467.427 440.906L469.37 428.335L456.799 426.392L458.742 413.821L446.172 411.878L444.228 424.449Z" fill="#050920"/>
<path d="M479.086 365.482L481.029 352.911L468.459 350.968L470.402 338.397L457.831 336.454L455.888 349.024L443.317 347.081L441.374 359.652L453.945 361.595L452.002 374.166L464.572 376.109L466.515 363.538L479.086 365.482Z" fill="#050920"/>
<path d="M529.369 373.254L541.94 375.197L539.996 387.768L527.426 385.825L529.369 373.254Z" fill="#050920"/>
<path d="M479.086 365.481L516.798 371.311L514.855 383.882L477.143 378.052L479.086 365.481Z" fill="#050920"/>
<path d="M535.198 335.542L522.628 333.598L520.684 346.169L508.114 344.226L506.17 356.797L518.741 358.74L516.798 371.31L529.369 373.254L531.312 360.683L543.882 362.626L545.826 350.056L533.255 348.112L535.198 335.542Z" fill="#050920"/>
<path d="M464.572 376.109L477.143 378.052L471.313 415.764L458.742 413.821L464.572 376.109Z" fill="#050920"/>
<path d="M421.03 407.991L433.601 409.935L435.544 397.364L448.115 399.307L450.058 386.736L437.488 384.793L441.374 359.652L428.803 357.709L421.03 407.991Z" fill="#050920"/>
<path d="M441.125 192.241L444.418 170.935L450.597 171.89L452.299 191.724L452.786 191.8L460.398 173.405L466.576 174.36L463.283 195.666L460.087 195.172L463.023 176.18L462.536 176.104L454.973 194.382L449.434 193.525L447.744 173.818L447.257 173.742L444.321 192.735L441.125 192.241ZM474.631 197.857C473.109 197.621 471.829 197.102 470.79 196.297C469.754 195.472 469.001 194.431 468.53 193.174C468.08 191.92 467.976 190.512 468.217 188.95L468.274 188.584C468.515 187.022 469.04 185.711 469.848 184.652C470.676 183.595 471.698 182.829 472.914 182.352C474.131 181.875 475.48 181.751 476.961 181.98C478.402 182.203 479.609 182.722 480.584 183.538C481.583 184.336 482.299 185.351 482.732 186.581C483.165 187.811 483.264 189.188 483.029 190.709L482.845 191.896L471.31 190.113C471.146 191.438 471.419 192.561 472.129 193.481C472.862 194.384 473.858 194.932 475.116 195.127C476.292 195.309 477.216 195.181 477.886 194.745C478.576 194.311 479.137 193.775 479.568 193.135L481.979 194.879C481.587 195.4 481.078 195.934 480.453 196.482C479.829 197.029 479.037 197.447 478.078 197.735C477.119 198.023 475.97 198.064 474.631 197.857ZM471.712 187.713L480.051 189.003C480.122 187.871 479.843 186.924 479.213 186.162C478.583 185.399 477.679 184.927 476.502 184.745C475.325 184.564 474.311 184.739 473.46 185.272C472.629 185.809 472.046 186.623 471.712 187.713ZM485.593 199.115L487.913 184.11L490.987 184.585L490.638 186.837L491.125 186.912C491.504 186.348 492.099 185.858 492.911 185.443C493.723 185.029 494.849 184.933 496.29 185.155C497.426 185.331 498.391 185.74 499.185 186.382C500 187.027 500.589 187.856 500.952 188.868C501.315 189.879 501.397 191.025 501.2 192.303L499.807 201.312L496.672 200.828L498.027 192.062C498.228 190.763 498.05 189.759 497.495 189.05C496.943 188.321 496.099 187.868 494.963 187.693C493.664 187.492 492.553 187.756 491.63 188.486C490.727 189.219 490.15 190.398 489.9 192.021L488.728 199.6L485.593 199.115ZM509.791 203.136C508.655 202.96 507.679 202.55 506.865 201.905C506.051 201.259 505.462 200.431 505.099 199.419C504.736 198.407 504.655 197.252 504.856 195.953L506.248 186.944L509.383 187.429L508.023 196.225C507.823 197.523 507.998 198.537 508.55 199.267C509.106 199.976 509.962 200.42 511.118 200.599C512.397 200.796 513.487 200.529 514.39 199.796C515.316 199.045 515.905 197.859 516.156 196.235L517.327 188.657L520.462 189.141L518.143 204.147L515.069 203.671L515.417 201.419L514.93 201.344C514.552 201.909 513.955 202.408 513.14 202.843C512.328 203.258 511.211 203.356 509.791 203.136Z" fill="white"/>
</svg>
