<svg xmlns:xlink="http://www.w3.org/1999/xlink" xmlns="http://www.w3.org/2000/svg" class="icon icon-yalla-insta w-100 h-100" width="40"  height="40" ><defs><symbol id="icon-yalla-insta" viewBox="0 0 32 32">
    <path d="M31.844 9.445c-0.018-1.344-0.269-2.674-0.743-3.931-0.411-1.061-1.039-2.024-1.843-2.828s-1.768-1.432-2.828-1.843c-1.241-0.466-2.552-0.718-3.878-0.745-1.707-0.076-2.248-0.098-6.58-0.098s-4.887 0-6.582 0.098c-1.325 0.027-2.636 0.279-3.876 0.745-1.061 0.411-2.024 1.038-2.828 1.843s-1.432 1.768-1.843 2.828c-0.467 1.24-0.718 2.551-0.743 3.876-0.076 1.708-0.099 2.25-0.099 6.582s0 4.886 0.099 6.582c0.027 1.327 0.277 2.636 0.743 3.88 0.411 1.060 1.039 2.023 1.844 2.827s1.768 1.431 2.829 1.842c1.237 0.485 2.548 0.755 3.876 0.798 1.708 0.076 2.249 0.099 6.582 0.099s4.888 0 6.582-0.099c1.326-0.026 2.637-0.277 3.878-0.743 1.060-0.411 2.023-1.039 2.828-1.844s1.432-1.767 1.843-2.828c0.467-1.242 0.717-2.551 0.743-3.88 0.076-1.707 0.099-2.248 0.099-6.582-0.004-4.332-0.004-4.882-0.103-6.58zM15.961 24.164c-4.531 0-8.201-3.67-8.201-8.201s3.67-8.201 8.201-8.201c2.175 0 4.261 0.864 5.799 2.402s2.402 3.624 2.402 5.799c0 2.175-0.864 4.261-2.402 5.799s-3.624 2.402-5.799 2.402zM24.489 9.37c-0.251 0-0.5-0.049-0.732-0.145s-0.443-0.237-0.621-0.415c-0.178-0.178-0.318-0.388-0.414-0.621s-0.145-0.481-0.145-0.732c0-0.251 0.049-0.5 0.146-0.732s0.237-0.443 0.414-0.62c0.177-0.178 0.388-0.318 0.62-0.414s0.48-0.146 0.732-0.146c0.251 0 0.5 0.049 0.732 0.146s0.443 0.237 0.62 0.414c0.178 0.178 0.318 0.388 0.414 0.62s0.146 0.48 0.146 0.732c0 1.057-0.855 1.912-1.911 1.912z"></path>
    <path d="M15.961 21.29c2.942 0 5.327-2.385 5.327-5.327s-2.385-5.327-5.327-5.327-5.327 2.385-5.327 5.327c0 2.942 2.385 5.327 5.327 5.327z"></path>
    </symbol></defs><use xlink:href="#icon-yalla-insta" stroke="#545E92" fill="#545E92" stroke-width="0px"></use></svg>