<svg width="252" height="513" viewBox="0 0 252 513" fill="none" preserveAspectRatio="none" xmlns="http://www.w3.org/2000/svg">
<path fill-rule="evenodd" clip-rule="evenodd" d="M0.000130615 231.608L0.000135062 256.07L9.74369e-05 270.7C-8.18827e-05 338.971 -0.000261202 407.242 0.00175614 475.514C0.00175614 475.829 0.00134234 476.145 0.000928513 476.461C-0.00117482 478.067 -0.00327867 479.674 0.0489476 481.278C0.476913 494.442 8.90834 506.167 21.2503 510.801C25.8124 512.515 30.5444 513.002 35.3898 513C80.1954 512.981 125.001 512.981 169.807 512.981C185.391 512.981 200.976 512.981 216.561 512.981H216.718C217.986 512.981 219.255 512.981 220.521 512.916C235.28 512.167 247.481 502.039 251.002 487.652C251.867 484.121 252 480.53 252 476.923C252 329.907 252.001 182.891 251.989 35.8744C251.989 33.8359 251.927 31.7858 251.712 29.7606C250.588 19.1785 245.495 10.9895 236.607 5.19454C230.682 1.3313 224.069 -0.00287382 217.069 9.325e-06C185.313 0.0135732 153.557 0.0158125 121.801 0.0180517C92.8068 0.0200962 63.8123 0.0221407 34.8177 0.0328051C32.6647 0.0337061 30.4999 0.202911 28.3606 0.461132C15.545 2.00704 3.86137 11.8696 0.760782 25.8741C0.0251718 29.1973 0.00121578 32.5446 0.00121578 35.9072C9.50353e-05 101.141 0.000112825 166.374 0.000130615 231.608ZM240.164 300.372C240.164 286.323 240.164 272.274 240.164 258.224C240.164 185.172 240.165 112.12 240.162 39.0683C240.162 38.8763 240.162 38.6843 240.162 38.4923C240.164 37.1221 240.165 35.7507 240.1 34.3833C239.631 24.4766 232.604 16.2998 222.864 14.4393C220.875 14.0594 218.814 13.9211 216.784 13.9069C210.355 13.8616 203.925 13.8682 197.495 13.8747C195.518 13.8768 193.54 13.8788 191.563 13.8793C191.409 13.8793 191.254 13.8785 191.099 13.8776C190.412 13.8736 189.722 13.8696 189.044 13.9492C187.449 14.1363 186.658 14.8419 186.343 16.3896C186.233 16.9341 186.182 17.4904 186.132 18.0471C186.096 18.4489 186.06 18.8509 186.001 19.2489C185.06 25.5967 181.053 29.643 174.719 30.5605C173.061 30.8006 171.374 30.9479 169.7 30.9493C140.875 30.9724 112.051 30.9749 83.2272 30.9456C81.3146 30.9436 79.3837 30.7687 77.4938 30.4693C72.1212 29.6179 68.3475 26.0654 67.1311 20.7818C66.9356 19.9329 66.8165 19.0669 66.6974 18.2005C66.62 17.638 66.5427 17.0753 66.4444 16.517C66.162 14.912 65.446 14.2016 63.8762 13.9698C63.2941 13.8839 62.6958 13.8839 62.1046 13.884H62.0793C59.7904 13.8841 57.5015 13.8804 55.2126 13.8768C48.3737 13.866 41.5348 13.8551 34.6971 13.9435C32.4459 13.9725 30.1235 14.3197 27.9684 14.968C17.6794 18.0631 13.0652 27.2526 12.9434 34.0933C12.8793 37.6967 12.8301 41.301 12.8299 44.9049C12.8243 179.955 12.825 315.006 12.8259 450.056C12.8259 459.428 12.8304 468.8 12.8459 478.172C12.8485 479.733 12.8629 481.298 12.9665 482.855C13.5755 491.999 20.087 499.751 28.9493 501.996C31.4252 502.624 33.9294 502.711 36.4552 502.711C66.4203 502.71 96.3855 502.709 126.351 502.709C156.316 502.709 186.281 502.709 216.246 502.708H216.454C217.586 502.708 218.719 502.708 219.848 502.646C229.334 502.122 237.195 495.55 239.511 486.338C240.161 483.753 240.159 481.148 240.157 478.536C240.157 478.391 240.157 478.247 240.157 478.102C240.163 418.859 240.163 359.616 240.164 300.372Z" fill="white"/>
</svg>
