<svg xmlns:xlink="http://www.w3.org/1999/xlink" xmlns="http://www.w3.org/2000/svg" class="icon icon-l-location sz-20" width="32"  height="32" ><defs><symbol id="icon-l-location" viewBox="0 0 32 32">
    <path d="M4.667 13.757c0-6.133 5.125-11.090 11.325-11.090 6.217 0 11.342 4.957 11.342 11.090 0 3.091-1.124 5.96-2.974 8.392-2.041 2.683-4.556 5.020-7.388 6.855-0.648 0.424-1.233 0.456-1.944 0-2.848-1.835-5.363-4.172-7.387-6.855-1.851-2.432-2.974-5.301-2.974-8.392zM12.259 14.102c0 2.055 1.677 3.671 3.732 3.671 2.057 0 3.75-1.616 3.75-3.671 0-2.039-1.693-3.733-3.75-3.733-2.056 0-3.732 1.695-3.732 3.733z"></path>
    </symbol></defs><use xlink:href="#icon-l-location" stroke="#43C6BC" fill="#43C6BC" stroke-width="0px"></use></svg>