<svg xmlns:xlink="http://www.w3.org/1999/xlink" xmlns="http://www.w3.org/2000/svg" class="icon icon-l-email sz-20" width="32"  height="32" ><defs><symbol id="icon-l-email" viewBox="0 0 32 32">
    <path d="M22.586 4c1.788 0 3.508 0.707 4.773 1.975 1.267 1.265 1.975 2.972 1.975 4.759v10.533c0 3.72-3.027 6.733-6.748 6.733h-13.172c-3.721 0-6.747-3.013-6.747-6.733v-10.533c0-3.72 3.012-6.733 6.747-6.733h13.172zM24.707 12.72l0.107-0.107c0.319-0.387 0.319-0.947-0.015-1.333-0.185-0.199-0.44-0.32-0.705-0.347-0.28-0.015-0.547 0.080-0.748 0.267l-6.012 4.8c-0.773 0.641-1.881 0.641-2.667 0l-6-4.8c-0.415-0.307-0.988-0.267-1.333 0.093-0.36 0.36-0.4 0.933-0.095 1.333l0.175 0.173 6.067 4.733c0.747 0.587 1.652 0.907 2.6 0.907 0.945 0 1.867-0.32 2.612-0.907l6.015-4.813z"></path>
    </symbol></defs><use xlink:href="#icon-l-email" stroke="#43C6BC" fill="#43C6BC" stroke-width="0px"></use></svg>