<svg xmlns:xlink="http://www.w3.org/1999/xlink" xmlns="http://www.w3.org/2000/svg" class="icon icon-yalla-tw w-100 h-100" width="40"  height="40" ><defs><symbol id="icon-yalla-tw" viewBox="0 0 32 32">
    <path d="M16 0c-8.837 0-16 7.163-16 16s7.163 16 16 16c8.837 0 16-7.163 16-16s-7.163-16-16-16zM22.508 13.107c0.007 0.137 0.008 0.273 0.008 0.407 0 4.167-3.168 8.968-8.965 8.968-1.713 0.003-3.39-0.489-4.83-1.417 0.245 0.030 0.497 0.042 0.752 0.042 1.477 0 2.835-0.502 3.913-1.348-0.657-0.013-1.294-0.23-1.821-0.622s-0.92-0.939-1.122-1.564c0.472 0.090 0.958 0.071 1.422-0.055-0.713-0.144-1.355-0.531-1.815-1.094s-0.713-1.268-0.713-1.996v-0.038c0.425 0.235 0.912 0.378 1.428 0.395-0.669-0.445-1.142-1.129-1.323-1.911s-0.057-1.605 0.348-2.299c0.792 0.973 1.779 1.77 2.898 2.337s2.344 0.894 3.597 0.958c-0.159-0.676-0.091-1.386 0.195-2.019s0.773-1.154 1.385-1.482c0.612-0.328 1.316-0.444 2.001-0.331s1.314 0.45 1.788 0.957c0.705-0.14 1.382-0.398 2-0.765-0.235 0.73-0.727 1.35-1.385 1.745 0.625-0.075 1.235-0.243 1.81-0.498-0.423 0.633-0.955 1.186-1.572 1.632z"></path>
    </symbol></defs><use xlink:href="#icon-yalla-tw" stroke="#545E92" fill="#545E92" stroke-width="0px"></use></svg>